HIERARCHY
ROOT Hips
{
  OFFSET 3.71593 101.906 62.9497
  CHANNELS 6 Xposition Yposition Zposition Zrotation Xrotation Yrotation
  JOINT RightUpLeg
  {
    OFFSET -8.9458 -8.66707 0.101652
    CHANNELS 3 Zrotation Xrotation Yrotation
    JOINT RightLeg
    {
      OFFSET 0 -44.4227 1.3727
      CHANNELS 3 Zrotation Xrotation Yrotation
      JOINT RightFoot
      {
        OFFSET 0.253549 -42.0924 -1.46059
        CHANNELS 3 Zrotation Xrotation Yrotation
        JOINT RightToes
        {
          OFFSET 0.04 -4.41509 8.4991
          CHANNELS 3 Zrotation Xrotation Yrotation
          End Site
          {
            OFFSET -0.08 -0.137448 9.77979
          }
        }
      }
    }
  }
  JOINT Spine
  {
    OFFSET 0 11.8905 0
    CHANNELS 3 Zrotation Xrotation Yrotation
    JOINT Spine1
    {
      OFFSET 0 25.6574 0.127663
      CHANNELS 3 Zrotation Xrotation Yrotation
      JOINT HEad
      {
        OFFSET 0 8.73416 0.011341
        CHANNELS 3 Zrotation Xrotation Yrotation
        End Site
        {
          OFFSET -0.29 12.7742 2.51395
        }
      }
      JOINT LeftShoulder1
      {
        OFFSET 8.99 -0.362252 -0.22
        CHANNELS 3 Zrotation Xrotation Yrotation
        JOINT LeftArm
        {
          OFFSET 10.2827 -0.00338 0.322123
          CHANNELS 3 Zrotation Xrotation Yrotation
          JOINT LeftForeArm
          {
            OFFSET 32.7669 0.099144 -1.42434
            CHANNELS 3 Zrotation Xrotation Yrotation
            JOINT LeftHand
            {
              OFFSET 27.5643 0.085362 1.02216
              CHANNELS 3 Zrotation Xrotation Yrotation
              End Site
              {
                OFFSET 16.7443 -0.6 1.50291
              }
            }
          }
        }
      }
      JOINT RightShoulder
      {
        OFFSET -8.99 -0.362252 -0.22
        CHANNELS 3 Zrotation Xrotation Yrotation
        JOINT RightArm
        {
          OFFSET -10.2827 -0.00338 0.322123
          CHANNELS 3 Zrotation Xrotation Yrotation
          JOINT RightForeArm
          {
            OFFSET -32.8971 0.099144 -1.42434
            CHANNELS 3 Zrotation Xrotation Yrotation
            JOINT RightHand
            {
              OFFSET -27.4921 0.085362 1.02216
              CHANNELS 3 Zrotation Xrotation Yrotation
              End Site
              {
                OFFSET -16.6312 -0.6 1.50291
              }
            }
          }
        }
      }
    }
  }
  JOINT LeftUpLeg
  {
    OFFSET 8.9458 -8.66707 0.101652
    CHANNELS 3 Zrotation Xrotation Yrotation
    JOINT LeftLeg
    {
      OFFSET 0 -44.4227 1.3727
      CHANNELS 3 Zrotation Xrotation Yrotation
      JOINT LeftFoot
      {
        OFFSET -0.253549 -42.0924 -1.46059
        CHANNELS 3 Zrotation Xrotation Yrotation
        JOINT LeftToes
        {
          OFFSET -0.04 -4.41509 8.4991
          CHANNELS 3 Zrotation Xrotation Yrotation
          End Site
          {
            OFFSET 0.08 -0.047448 9.77979
          }
        }
      }
    }
  }
}
MOTION
Frames:	7
Frame Time:	0.0166667
0.207066 102.067 208.82 -7.73954 -0.836389 -178.222 -4.55612 5.8059 -1.12522 6.3072 31.2713 -17.936 14.4007 -5.23726 0.152428 0.0462048 0.000533964 0.662642 -0.687859 3.79313 -2.43972 -11.5303 -3.1791 -0.630257 2.76475 0.871122 9.5161 -6.80216e-016 0 9.93923e-017 -74.9242 -46.3804 10.04 -19.1536 16.0486 -22.9519 0.368473 9.90896 -0.00117927 -2.44168 0.931794 11.1923 91.3445 -27.2201 4.76433 16.8059 13.4995 7.10549 -0.369625 9.91382 0.00119885 -11.314 -31.2769 3.47264 -2.3962 32.245 8.63734 -0.259785 -1.23038 0.0813143 -7.35467e-011 8.84019e-012 1.20575e-011 
0.0196855 102.169 206.935 -8.25105 -0.612263 -177.74 -5.74597 5.04657 -1.25865 7.45715 34.3758 -19.7599 14.3006 -2.74578 -0.155251 -0.0631335 9.01047 3.18599 -1.15586 3.86636 -2.44867 -11.9948 -2.88386 -0.59297 2.75501 1.20867 9.05214 1.38994e-016 -1.98785e-016 -4.96962e-017 -75.3385 -46.6269 9.36672 -18.7969 15.9075 -22.3986 0.368473 9.90896 -0.00117927 -2.42333 0.912111 10.852 91.0856 -27.3175 3.82126 17.0918 13.4987 7.0418 -0.369625 9.91382 0.00119885 -12.0275 -30.1298 2.61109 -3.03066 33.1002 9.12142 -0.127534 -2.57392 0.0813776 -0.20518 -0.320352 -0.205283 
-0.169284 102.237 205.096 -8.77148 -0.383924 -177.389 -6.96088 4.05319 -1.58903 8.63206 37.7279 -21.2163 14.2055 -0.277381 -0.455171 -0.251859 16.9661 4.75179 -1.69076 3.95981 -2.42655 -12.4149 -2.53887 -0.54514 2.75653 1.4334 8.67645 -2.57799e-016 1.98785e-016 -0 -75.8275 -46.8027 8.66434 -18.4849 15.7839 -21.9154 0.368473 9.90896 -0.00117927 -2.44279 0.886661 10.4898 90.8635 -27.3885 3.01067 17.3426 13.5045 7.02922 -0.369625 9.91382 0.00119885 -12.6336 -29.0256 2.08124 -3.59335 33.9982 9.4292 -0.0111865 -3.99979 0.081494 -0.365805 -0.535724 -0.374204 
-0.372797 102.214 203.377 -9.30894 -0.123182 -177.402 -8.35399 2.4486 -2.52859 9.3764 42.0477 -21.2054 14.086 2.13968 -0.740993 1.80688 22.1006 2.82056 -2.41266 4.13073 -2.31233 -12.6964 -2.04308 -0.465631 2.76939 1.35239 8.55122 8.41729e-016 3.97569e-016 -1.98785e-016 -76.5355 -46.8404 7.90568 -18.2898 15.7158 -21.6399 0.368473 9.90896 -0.00117927 -2.6151 0.837487 10.0313 90.7752 -27.3697 2.57153 17.5096 13.5261 7.13948 -0.369625 9.91382 0.00119885 -13.0528 -28.0352 2.51842 -3.85264 35.0491 9.11745 0.087584 -5.7 0.0862349 -0.384369 -0.426071 -0.433793 
-0.558349 102.139 201.739 -9.84929 0.102968 -177.605 -9.68738 0.431295 -3.62649 9.44062 46.6836 -20.5089 13.9344 4.49705 -1.01106 4.84556 25.8291 -0.291427 -3.23076 4.28836 -2.1647 -12.9455 -1.50073 -0.375675 2.80346 1.08799 8.54191 1.28589e-015 3.97569e-016 -0 -77.2725 -46.6698 7.09715 -18.1935 15.6761 -21.4351 0.368473 9.90896 -0.00117927 -2.74651 0.795486 9.61192 90.6967 -27.3829 2.32683 17.5974 13.5619 7.36196 -0.369625 9.91382 0.00119885 -13.3879 -27.1555 3.19219 -4.07286 36.1166 8.7263 0.110926 -7.4278 0.0877039 -0.360396 -0.231682 -0.457408 
-0.68603 102.011 200.18 -10.4257 0.218507 -177.919 -10.662 -2.00147 -4.7444 8.21086 51.2137 -19.2978 13.7226 7.25899 -1.31261 7.09612 29.8116 -2.42263 -4.15733 4.34436 -2.01371 -13.2676 -0.969028 -0.286179 2.88054 0.666431 8.56452 1.72073e-015 -7.95139e-016 -2.98177e-016 -77.8255 -46.1461 6.27637 -18.2333 15.6554 -21.2178 0.368473 9.90896 -0.00117927 -2.64305 0.79625 9.42937 90.5025 -27.5646 2.15047 17.5868 13.6214 7.76373 -0.369625 9.91382 0.00119885 -13.6637 -26.4658 3.5298 -4.58219 37.1387 8.78154 -0.0511112 -8.97519 0.0788533 -0.369799 -0.156801 -0.493744 
-0.79101 101.902 198.658 -10.9161 0.278228 -178.298 -11.4627 -4.62027 -5.38056 6.91183 55.4145 -18.3533 13.4772 8.97967 -1.49046 9.18114 31.5755 -4.61823 -4.99892 4.34875 -1.88432 -13.5669 -0.487956 -0.206716 2.97664 0.184738 8.63056 5.77718e-016 7.95139e-016 -0 -78.3659 -45.4232 5.35478 -18.3109 15.6337 -20.9658 0.368473 9.90896 -0.00117927 -2.41649 0.808631 9.22283 90.2847 -27.7983 2.12377 17.4989 13.6787 8.18378 -0.369625 9.91382 0.00119885 -13.8484 -25.7969 3.78395 -5.11795 37.9972 8.97047 -0.246222 -10.4179 0.0669146 -0.390233 -0.0894877 -0.543834 
